<?xml version="1.0" encoding="UTF-8" standalone="no"?>
<!DOCTYPE svg PUBLIC "-//W3C//DTD SVG 20010904//EN"
              "http://www.w3.org/TR/2001/REC-SVG-20010904/DTD/svg10.dtd">

<svg xmlns="http://www.w3.org/2000/svg"
     width="0.888889in" height="0.888889in"
     viewBox="0 0 64 64">
  <path id="Eye copy"
        fill="none" stroke="black" stroke-width="1"
        d="M 17.82,13.18
           C 17.82,13.18 17.41,15.03 17.41,15.03M 13.55,19.18
           C 13.55,19.18 6.73,13.45 6.73,13.45M 58.38,42.50
           C 60.22,38.45 42.25,23.04 41.13,25.50
             40.44,27.05 18.98,13.71 20.13,11.13
             19.53,9.58 8.77,8.38 9.25,9.63
             3.16,9.08 5.84,20.16 8.25,20.38
             9.10,20.11 15.19,27.74 13.13,28.38
             12.23,28.58 18.87,39.18 19.63,39.00
             24.38,43.43 10.97,50.42 8.38,48.00
             5.58,48.29 1.78,53.24 8.88,52.50
             8.88,52.50 24.91,51.91 24.91,51.91
             24.00,53.34 22.08,48.23 23.91,45.36
             24.54,46.14 25.66,38.13 25.25,37.63
             25.25,37.63 25.50,44.75 25.50,44.75
             24.94,47.82 36.53,53.26 36.88,51.25
             37.97,52.04 43.38,49.67 42.88,49.25M 48.25,44.13
           C 48.25,44.13 58.63,44.25 58.63,44.25
             63.63,45.03 57.98,53.13 53.00,52.75
             53.00,52.75 40.13,52.88 40.13,52.88M 51.27,39.64
           C 37.52,38.57 37.58,47.30 46.55,48.00
             46.55,48.00 53.45,47.45 53.45,47.45" />
</svg>
